<?xml version="1.0" encoding="UTF-8" standalone="no"?>
<!DOCTYPE svg PUBLIC "-//W3C//DTD SVG 1.1//EN" "http://www.w3.org/Graphics/SVG/1.1/DTD/svg11.dtd">
<svg width="100%" height="100%" viewBox="0 0 347 134" version="1.1" xmlns="http://www.w3.org/2000/svg" xmlns:xlink="http://www.w3.org/1999/xlink" xml:space="preserve" xmlns:serif="http://www.serif.com/" style="fill-rule:evenodd;clip-rule:evenodd;stroke-linejoin:round;stroke-miterlimit:2;">
    <g id="Artboard1" transform="matrix(1,0,0,0.973078,0,0)">
        <rect x="0" y="0" width="346.281" height="137.317" style="fill:none;"/>
        <g transform="matrix(0.41694,0.934081,0.908934,-0.428476,48.6437,-0.858097)">
            <path d="M-11.271,-26.573L37.295,-26.573L41.425,-17.57L-7.141,-17.57L-11.271,-26.573Z" style="fill:white;fill-rule:nonzero;"/>
        </g>
        <g transform="matrix(0.41694,0.934081,0.908934,-0.428476,28.8523,-0.858097)">
            <path d="M-11.271,-26.573L37.295,-26.573L41.425,-17.57L-7.141,-17.57L-11.271,-26.573Z" style="fill:white;fill-rule:nonzero;"/>
        </g>
        <g transform="matrix(1,0,0,1.02767,49.9454,90.045)">
            <path d="M0,-43.478L10.319,-21.739L0,0L10.112,0L20.613,-21.739L9.863,-43.478L0,-43.478Z" style="fill:white;fill-rule:nonzero;"/>
        </g>
        <g transform="matrix(1,0,0,1.02767,280.863,81.4075)">
            <path d="M0,0L0.348,0L0,0Z" style="fill:white;fill-rule:nonzero;"/>
        </g>
        <g transform="matrix(1,0,0,1.02767,280.863,81.4075)">
            <path d="M0,0L0.348,0L0,0Z" style="fill:white;fill-rule:nonzero;"/>
        </g>
        <g transform="matrix(1,0,0,1.02767,-222.52,-275.121)">
            <rect x="489.254" y="312.835" width="0.514" height="9.465" style="fill:white;"/>
        </g>
        <g transform="matrix(1,0,0,1.02767,-222.52,-275.121)">
            <rect x="489.254" y="312.835" width="0.514" height="9.465" style="fill:white;"/>
        </g>
        <g transform="matrix(1,0,0,1.02767,241.791,81.4068)">
            <rect x="0" y="0" width="0.001" height="0.001" style="fill:white;"/>
        </g>
        <g transform="matrix(1,0,0,1.02767,241.791,81.4068)">
            <rect x="0" y="0" width="0.001" height="0.001" style="fill:white;"/>
        </g>
        <g transform="matrix(1,0,0,1.02767,241.791,68.3686)">
            <path d="M0,-0.304L-0.02,-0.304C-0.019,-0.199 0,-0.105 0,0L0,-0.304Z" style="fill:white;fill-rule:nonzero;"/>
        </g>
        <g transform="matrix(1,0,0,1.02767,239.142,81.4075)">
            <path d="M0,0L1.337,0L0,0Z" style="fill:white;fill-rule:nonzero;"/>
        </g>
        <g transform="matrix(1,0,0,1.02767,239.142,81.4075)">
            <path d="M0,0L1.337,0L0,0Z" style="fill:white;fill-rule:nonzero;"/>
        </g>
        <g transform="matrix(1,0,0,1.02767,240.478,81.4075)">
            <path d="M0,0L1.313,0L0,0Z" style="fill:white;fill-rule:nonzero;"/>
        </g>
        <g transform="matrix(1,0,0,1.02767,240.478,81.4075)">
            <path d="M0,0L1.313,0L0,0Z" style="fill:white;fill-rule:nonzero;"/>
        </g>
        <g transform="matrix(1,0,0,1.02767,240.478,81.4075)">
            <path d="M0,0L1.313,0L0,0Z" style="fill:white;fill-rule:nonzero;"/>
        </g>
        <g transform="matrix(1,0,0,1.02767,230.722,81.4068)">
            <rect x="0" y="0" width="0.001" height="0.001" style="fill:white;"/>
        </g>
        <g transform="matrix(1,0,0,1.02767,230.722,81.4068)">
            <rect x="0" y="0" width="0.001" height="0.001" style="fill:white;"/>
        </g>
        <g transform="matrix(1,0,0,1.02767,230.721,81.4075)">
            <path d="M0,0L8.42,0L0,0Z" style="fill:white;fill-rule:nonzero;"/>
        </g>
        <g transform="matrix(1,0,0,1.02767,230.721,81.4075)">
            <path d="M0,0L8.42,0L0,0Z" style="fill:white;fill-rule:nonzero;"/>
        </g>
        <g transform="matrix(1,0,0,1.02767,230.721,81.4075)">
            <path d="M0,0L8.42,0L0,0Z" style="fill:white;fill-rule:nonzero;"/>
        </g>
        <g transform="matrix(1,0,0,1.02767,241.791,90.1523)">
            <path d="M0,0.956L0,0L0,0.956Z" style="fill:white;fill-rule:nonzero;"/>
        </g>
        <g transform="matrix(1,0,0,1.02767,241.791,90.1523)">
            <path d="M0,0.956L0,0L0,0.956Z" style="fill:white;fill-rule:nonzero;"/>
        </g>
        <g transform="matrix(1,0,0,1.02767,241.791,81.407)">
            <path d="M0,8.51L0,0L0,8.51Z" style="fill:white;fill-rule:nonzero;"/>
        </g>
        <g transform="matrix(1,0,0,1.02767,241.791,81.407)">
            <path d="M0,8.51L0,0L0,8.51Z" style="fill:white;fill-rule:nonzero;"/>
        </g>
        <g transform="matrix(1,0,0,1.02767,241.791,81.407)">
            <path d="M0,8.51L0,0L0,8.51Z" style="fill:white;fill-rule:nonzero;"/>
        </g>
        <g transform="matrix(1,0,0,1.02767,230.722,81.4064)">
            <rect x="0" y="0" width="0.001" height="0.001" style="fill:white;"/>
        </g>
        <g transform="matrix(1,0,0,1.02767,230.722,81.4064)">
            <rect x="0" y="0" width="0.001" height="0.001" style="fill:white;"/>
        </g>
        <g transform="matrix(1,0,0,1.02767,230.722,81.4064)">
            <rect x="0" y="0" width="0.001" height="0.001" style="fill:white;"/>
        </g>
        <g transform="matrix(1,0,0,1.02767,230.027,82.5513)">
            <path d="M0,-1.113L0,0L0.694,-1.113L0,-1.113Z" style="fill:white;fill-rule:nonzero;"/>
        </g>
        <g transform="matrix(1,0,0,1.02767,241.772,50.7698)">
            <path d="M0,16.821C-0.105,4.177 -6.517,-5.101 -17.661,-5.101C-22.141,-5.101 -25.235,-3.72 -27.42,-1.88L-27.42,-22.457L-37.943,-22.457L-37.943,39.278L-11.051,39.278L-11.051,38.002L-11.05,38.002L-11.05,29.813L-11.051,29.813L-11.05,29.813L-27.42,29.813L-27.42,7.562C-25.915,5.781 -23.766,4.649 -20.718,4.649C-13.613,4.649 -11.05,10.336 -11.05,17.111L-11.05,29.813L0.02,29.813L0.02,17.125C0.02,17.02 0.001,16.926 0,16.821" style="fill:white;fill-rule:nonzero;"/>
        </g>
        <g transform="matrix(1,0,0,1.02767,196.007,68.0558)">
            <path d="M0,0.304L0,0L-0.02,0C-0.019,0.105 0,0.199 0,0.304" style="fill:white;fill-rule:nonzero;"/>
        </g>
        <g transform="matrix(1,0,0,1.02767,305.896,68.8463)">
            <path d="M0,-12.413L0,-21.871L-14.087,-21.871L-14.087,-34.101L-25.033,-34.101L-25.033,-21.871L-38.648,-21.871L-38.648,-12.406L-25.033,-12.406L-25.033,12.223L-13.963,12.223L-13.963,21.688L0,21.688L0,12.223L-13.963,12.223L-13.963,-12.413L0,-12.413Z" style="fill:white;fill-rule:nonzero;"/>
        </g>
        <g transform="matrix(1,0,0,1.02767,267.248,56.097)">
            <path d="M0,24.629L0,0L-0.514,0L-0.514,-9.465L-25.199,-9.465L-25.199,0L-11.07,0L-11.07,24.629L-25.456,24.629L-25.456,34.094L13.615,34.094L13.615,24.629L0,24.629Z" style="fill:white;fill-rule:nonzero;"/>
        </g>
        <g transform="matrix(-1,0,0,1.02767,745.946,-309.984)">
            <rect x="478.698" y="328.995" width="11.07" height="11.07" style="fill:white;"/>
        </g>
        <g transform="matrix(1,0,0,1.02767,84.9531,89.321)">
            <path d="M0,-41.659L9.194,-41.659L10.008,-35.231L10.333,-35.231C12.204,-39.217 15.947,-42.31 21.317,-42.31L24.409,-42.31L24.409,-32.222L20.584,-32.222C14.076,-32.222 10.333,-27.745 10.333,-20.099L10.333,0.651L0,0.651L0,-41.659Z" style="fill:white;fill-rule:nonzero;"/>
        </g>
        <g transform="matrix(1,0,0,1.02767,111.076,59.3036)">
            <path d="M0,17.41C0,9.764 5.289,4.31 17.169,4.31C20.666,4.31 24.572,4.96 26.606,5.614L26.606,1.951C26.606,-1.464 24.409,-4.234 19.201,-4.234C14.645,-4.234 12.123,-1.791 12.123,1.221L1.871,1.221C1.871,-6.755 7.891,-13.184 19.445,-13.184C30.837,-13.184 37.427,-6.755 37.427,1.871L37.427,29.86L27.745,29.86L27.013,25.467L26.687,25.467C24.247,28.559 20.259,30.594 14.808,30.594C5.369,30.594 0,24.896 0,17.41M26.606,14.158L26.606,13.26C23.759,12.203 20.991,11.88 18.144,11.88C13.344,11.88 10.822,13.911 10.822,16.923C10.822,19.852 13.019,21.967 17.412,21.967C23.108,21.967 26.606,18.388 26.606,14.158" style="fill:white;fill-rule:nonzero;"/>
        </g>
        <g transform="matrix(1,0,0,1.02767,168.202,33.5503)">
            <path d="M0,50.363L-0.325,50.363L-1.464,54.92L-11.229,54.92L-11.229,-5.291L-0.325,-5.291L-0.325,17.167L0,17.167C2.117,14.398 5.614,11.876 11.636,11.876C22.701,11.876 29.048,21.153 29.048,33.763C29.048,46.704 22.457,55.654 11.636,55.654C5.614,55.654 2.117,53.128 0,50.363M17.982,33.763C17.982,27.091 15.622,21.477 8.625,21.477C1.71,21.477 -0.732,27.175 -0.732,33.763C-0.732,40.355 1.79,46.049 8.625,46.049C15.46,46.049 17.982,40.355 17.982,33.763" style="fill:white;fill-rule:nonzero;"/>
        </g>
        <g transform="matrix(0,1.02767,1,0,42.9932,51.6456)">
            <path d="M5.663,-5.663C2.536,-5.663 0.001,-3.128 0.001,0C0.001,3.126 2.536,5.663 5.663,5.663C8.79,5.663 11.325,3.126 11.325,0C11.325,-3.128 8.79,-5.663 5.663,-5.663" style="fill:rgb(231,121,184);fill-rule:nonzero;"/>
        </g>
    </g>
</svg>
