<?xml version="1.0" encoding="UTF-8" standalone="no"?><!DOCTYPE svg PUBLIC "-//W3C//DTD SVG 1.1//EN" "http://www.w3.org/Graphics/SVG/1.1/DTD/svg11.dtd"><svg width="100%" height="100%" viewBox="0 0 1083 418" version="1.1" xmlns="http://www.w3.org/2000/svg" xmlns:xlink="http://www.w3.org/1999/xlink" xml:space="preserve" xmlns:serif="http://www.serif.com/" style="fill-rule:evenodd;clip-rule:evenodd;stroke-linejoin:round;stroke-miterlimit:2;"><rect id="Artboard1" x="0" y="0" width="1082.13" height="417.564" style="fill:none;"/><rect x="993.988" y="263.603" width="88.141" height="13.525" style="fill:#676f93;"/><path d="M635.233,391.108l51.567,0l-0,-10.4l-19.717,0l-0,-69.766l-29.9,-0l-0,10.4l17.55,-0l-0,59.366l-19.5,0l-0,10.4Z" style="fill:#6cdd83;fill-rule:nonzero;"/><path d="M728.725,392.083c13.433,0 22.858,-7.8 24.375,-17.983l-12.134,0c-1.3,4.55 -5.416,7.583 -12.241,7.583c-9.1,0 -13.65,-6.175 -13.65,-15.058l38.783,0l-0,-5.2c-0,-15.383 -8.992,-27.192 -25.35,-27.192c-17.658,0 -26.217,12.892 -26.217,28.925c0,16.25 9.425,28.925 26.434,28.925Zm-13.542,-34.233c0.325,-7.258 4.333,-13.108 13.325,-13.108c8.45,-0 12.458,5.741 12.675,13.108l-26,0Z" style="fill:#6cdd83;fill-rule:nonzero;"/><path d="M795.35,416.892c15.816,-0 25.891,-9.425 25.891,-22.75l0,-58.934l-10.941,0l-1.409,6.717l-0.433,0c-2.817,-4.225 -7.908,-7.692 -16.033,-7.692c-14.409,0 -23.184,11.484 -23.292,28.925c0.108,16.684 8.233,28.925 23.292,28.925c8.125,0 13.216,-3.466 16.033,-7.691l0.433,-0l0,9.533c0,6.933 -4.333,12.35 -13.541,12.35c-8.017,0 -12.134,-4.442 -12.567,-9.1l-12.025,0c0.325,11.592 9.967,19.717 24.592,19.717Zm0.108,-35.75c-10.183,-0 -13.758,-8.234 -13.758,-17.984c-0,-9.75 3.683,-17.983 13.758,-17.983c9.858,0 13.867,8.342 13.867,17.983c-0,9.642 -3.9,17.984 -13.867,17.984Z" style="fill:#6cdd83;fill-rule:nonzero;"/><path d="M857.75,392.083c7.475,0 13.108,-2.816 16.358,-7.583l0.433,0l0.867,6.608l10.833,0l0,-37.266c0,-11.05 -8.233,-19.609 -22.966,-19.609c-14.084,0 -22.534,7.909 -22.534,18.525l11.7,0c0.109,-4.55 3.684,-8.341 10.509,-8.341c7.8,-0 11.05,4.333 11.05,9.533l-0,5.2c-2.925,-0.867 -7.8,-1.842 -13,-1.842c-15.925,0 -22.75,7.584 -22.75,17.334c-0,9.858 7.15,17.441 19.5,17.441Zm2.708,-9.858c-6.717,0 -9.967,-3.467 -9.967,-8.017c0,-4.983 3.9,-8.016 11.375,-8.016c4.117,-0 8.017,0.541 12.134,1.95l-0,1.841c-0,6.609 -5.2,12.242 -13.542,12.242Z" style="fill:#6cdd83;fill-rule:nonzero;"/><path d="M903.466,391.108l51.567,0l-0,-10.4l-19.717,0l0,-69.766l-29.9,-0l0,10.4l17.55,-0l0,59.366l-19.5,0l0,10.4Z" style="fill:#6cdd83;fill-rule:nonzero;"/><path d="M157.504,0l-63.278,137.947l-30.953,-0l63.278,-137.947l30.953,0Z" style="fill:#fff;fill-rule:nonzero;"/><path d="M219.352,0l-63.278,137.947l-30.953,-0l63.278,-137.947l30.953,0Z" style="fill:#fff;fill-rule:nonzero;"/><path d="M156.079,137.946l32.247,67.935l-32.247,67.934l31.6,-0l32.816,-67.934l-33.594,-67.935l-30.822,0Z" style="fill:#fff;fill-rule:nonzero;"/><path d="M877.697,247.55l1.087,-0l-1.087,-0Z" style="fill:#fff;fill-rule:nonzero;"/><path d="M877.697,247.55l1.087,-0l-1.087,-0Z" style="fill:#fff;fill-rule:nonzero;"/><rect x="833.545" y="141.003" width="1.606" height="29.578" style="fill:#fff;"/><rect x="833.545" y="141.003" width="1.606" height="29.578" style="fill:#fff;"/><rect x="755.598" y="247.547" width="0.003" height="0.003" style="fill:#fff;"/><rect x="755.598" y="247.547" width="0.003" height="0.003" style="fill:#fff;"/><path d="M755.598,206.95l-0.062,-0c0.003,0.328 0.062,0.622 0.062,0.95l0,-0.95Z" style="fill:#fff;fill-rule:nonzero;"/><path d="M747.318,247.55l4.178,-0l-4.178,-0Z" style="fill:#fff;fill-rule:nonzero;"/><path d="M747.318,247.55l4.178,-0l-4.178,-0Z" style="fill:#fff;fill-rule:nonzero;"/><path d="M751.494,247.55l4.103,-0l-4.103,-0Z" style="fill:#fff;fill-rule:nonzero;"/><path d="M751.494,247.55l4.103,-0l-4.103,-0Z" style="fill:#fff;fill-rule:nonzero;"/><path d="M751.494,247.55l4.103,-0l-4.103,-0Z" style="fill:#fff;fill-rule:nonzero;"/><rect x="721.005" y="247.547" width="0.003" height="0.003" style="fill:#fff;"/><rect x="721.005" y="247.547" width="0.003" height="0.003" style="fill:#fff;"/><path d="M721.004,247.55l26.312,-0l-26.312,-0Z" style="fill:#fff;fill-rule:nonzero;"/><path d="M721.004,247.55l26.312,-0l-26.312,-0Z" style="fill:#fff;fill-rule:nonzero;"/><path d="M721.004,247.55l26.312,-0l-26.312,-0Z" style="fill:#fff;fill-rule:nonzero;"/><path d="M755.598,277.129l-0,-2.988l-0,2.988Z" style="fill:#fff;fill-rule:nonzero;"/><path d="M755.598,277.129l-0,-2.988l-0,2.988Z" style="fill:#fff;fill-rule:nonzero;"/><path d="M755.598,274.142l-0,-26.594l-0,26.594Z" style="fill:#fff;fill-rule:nonzero;"/><path d="M755.598,274.142l-0,-26.594l-0,26.594Z" style="fill:#fff;fill-rule:nonzero;"/><path d="M755.598,274.142l-0,-26.594l-0,26.594Z" style="fill:#fff;fill-rule:nonzero;"/><rect x="721.005" y="247.546" width="0.003" height="0.003" style="fill:#fff;"/><rect x="721.005" y="247.546" width="0.003" height="0.003" style="fill:#fff;"/><rect x="721.005" y="247.546" width="0.003" height="0.003" style="fill:#fff;"/><path d="M718.835,247.55l0,3.478l2.169,-3.478l-2.169,-0Z" style="fill:#fff;fill-rule:nonzero;"/><path d="M755.537,206.95c-0.328,-39.513 -20.366,-68.506 -55.191,-68.506c-14,-0 -23.669,4.315 -30.497,10.065l0,-64.303l-32.884,0l-0,192.922l84.037,0l0,-3.987l0.004,-0l-0,-25.591l-0.004,-0l0.004,-0l-51.157,-0l0,-69.534c4.703,-5.566 11.419,-9.104 20.944,-9.104c22.203,0 30.213,17.772 30.213,38.944l-0,39.694l34.593,-0l0,-39.65c0,-0.328 -0.059,-0.622 -0.062,-0.95" style="fill:#fff;fill-rule:nonzero;"/><path d="M612.521,207.899l0,-0.95l-0.062,-0c0.003,0.328 0.062,0.622 0.062,0.95" style="fill:#fff;fill-rule:nonzero;"/><path d="M955.926,170.562l-0,-29.556l-44.022,-0l0,-38.219l-34.206,-0l-0,38.219l-42.547,-0l-0,29.578l42.547,-0l-0,76.965l34.594,0l-0,29.578l43.634,0l-0,-29.578l-43.634,0l-0,-76.987l43.634,-0Z" style="fill:#fff;fill-rule:nonzero;"/><path d="M835.149,247.549l0,-76.965l-1.606,-0l0,-29.578l-77.141,-0l0,29.578l44.154,-0l-0,76.965l-44.957,0l0,29.578l122.097,0l0,-29.578l-42.547,0Z" style="fill:#fff;fill-rule:nonzero;"/><rect x="800.557" y="85.488" width="34.594" height="34.594" style="fill:#fff;"/><path d="M265.478,141.429l28.732,0l2.543,20.088l1.016,-0c5.847,-12.457 17.544,-22.122 34.325,-22.122l9.663,-0l-0,31.525l-11.954,-0c-20.337,-0 -32.034,13.99 -32.034,37.884l0,64.844l-32.291,-0l0,-132.219Z" style="fill:#fff;fill-rule:nonzero;"/><path d="M347.112,234.741c0,-23.894 16.529,-40.938 53.654,-40.938c10.928,0 23.134,2.031 29.49,4.075l0,-11.447c0,-10.672 -6.865,-19.328 -23.14,-19.328c-14.238,0 -22.119,7.634 -22.119,17.047l-32.038,-0c0,-24.925 18.813,-45.016 54.919,-45.016c35.6,0 56.194,20.091 56.194,47.047l-0,87.466l-30.256,-0l-2.288,-13.728l-1.019,-0c-7.625,9.662 -20.087,16.022 -37.122,16.022c-29.496,-0 -46.275,-17.807 -46.275,-41.2m83.144,-10.163l0,-2.806c-8.897,-3.303 -17.547,-4.313 -26.444,-4.313c-15,0 -22.881,6.347 -22.881,15.76c0,9.153 6.866,15.762 20.594,15.762c17.8,0 28.731,-11.184 28.731,-24.403" style="fill:#fff;fill-rule:nonzero;"/><path d="M525.631,259.407l-1.016,-0l-3.559,14.24l-30.516,0l0,-188.159l34.075,-0l0,70.181l1.016,0c6.616,-8.653 17.544,-16.534 36.362,-16.534c34.579,-0 54.413,28.99 54.413,68.397c-0,40.44 -20.597,68.409 -54.413,68.409c-18.818,-0 -29.746,-7.894 -36.362,-16.534m56.194,-51.875c-0,-20.85 -7.375,-38.394 -29.241,-38.394c-21.609,-0 -29.241,17.806 -29.241,38.394c0,20.6 7.882,38.393 29.241,38.393c21.359,0 29.241,-17.793 29.241,-38.393" style="fill:#fff;fill-rule:nonzero;"/><path d="M116.658,174.743c0,-9.772 7.922,-17.694 17.697,-17.694c9.769,0 17.694,7.922 17.694,17.694c0,9.772 -7.925,17.694 -17.694,17.694c-9.775,-0 -17.697,-7.922 -17.697,-17.694" style="fill:#e779b8;fill-rule:nonzero;"/></svg>