<?xml version="1.0" encoding="UTF-8" standalone="no"?>
<!DOCTYPE svg PUBLIC "-//W3C//DTD SVG 1.1//EN" "http://www.w3.org/Graphics/SVG/1.1/DTD/svg11.dtd">
<svg width="100%" height="100%" viewBox="0 0 347 134" version="1.1" xmlns="http://www.w3.org/2000/svg" xmlns:xlink="http://www.w3.org/1999/xlink" xml:space="preserve" xmlns:serif="http://www.serif.com/" style="fill-rule:evenodd;clip-rule:evenodd;stroke-linejoin:round;stroke-miterlimit:2;">
    <g id="Artboard1" transform="matrix(1,0,0,0.972929,0,0)">
        <rect x="0" y="0" width="346.281" height="137.317" style="fill:none;"/>
        <g transform="matrix(1,0,0,1.02782,-222.52,-199.795)">
            <rect x="540.596" y="278.74" width="28.205" height="4.328" style="fill:rgb(103,111,147);"/>
        </g>
        <g transform="matrix(1,0,0,1.02782,-235.101,-240.396)">
            <g transform="matrix(34.6667,0,0,34.6667,372.047,359.043)">
                <path d="M0.32,-0.595C0.367,-0.595 0.393,-0.623 0.393,-0.667C0.393,-0.711 0.367,-0.738 0.32,-0.738C0.272,-0.738 0.247,-0.711 0.247,-0.667C0.247,-0.623 0.272,-0.595 0.32,-0.595ZM0.074,-0L0.545,-0L0.545,-0.096L0.377,-0.096L0.377,-0.516L0.092,-0.516L0.092,-0.42L0.263,-0.42L0.263,-0.096L0.074,-0.096L0.074,-0Z" style="fill:rgb(231,121,184);fill-rule:nonzero;"/>
            </g>
            <g transform="matrix(34.6667,0,0,34.6667,393.506,359.043)">
                <path d="M0.085,-0L0.199,-0L0.199,-0.285C0.199,-0.371 0.244,-0.422 0.316,-0.422C0.389,-0.422 0.422,-0.381 0.422,-0.309L0.422,-0L0.536,-0L0.536,-0.337C0.536,-0.453 0.464,-0.525 0.35,-0.525C0.276,-0.525 0.226,-0.493 0.199,-0.449L0.195,-0.449L0.185,-0.516L0.085,-0.516L0.085,-0Z" style="fill:rgb(231,121,184);fill-rule:nonzero;"/>
            </g>
            <g transform="matrix(34.6667,0,0,34.6667,414.965,359.043)">
                <path d="M0.405,0.009C0.454,0.009 0.502,-0 0.536,-0.009L0.536,-0.105L0.527,-0.105C0.5,-0.096 0.469,-0.09 0.433,-0.09C0.366,-0.09 0.332,-0.115 0.332,-0.164L0.332,-0.419L0.541,-0.419L0.541,-0.516L0.332,-0.516L0.332,-0.653L0.322,-0.653L0.222,-0.625L0.222,-0.516L0.063,-0.516L0.063,-0.419L0.218,-0.419L0.218,-0.148C0.218,-0.053 0.285,0.009 0.405,0.009Z" style="fill:rgb(231,121,184);fill-rule:nonzero;"/>
            </g>
            <g transform="matrix(34.6667,0,0,34.6667,436.423,359.043)">
                <path d="M0.315,0.009C0.439,0.009 0.526,-0.063 0.54,-0.157L0.428,-0.157C0.416,-0.115 0.378,-0.087 0.315,-0.087C0.231,-0.087 0.189,-0.144 0.189,-0.226L0.547,-0.226L0.547,-0.274C0.547,-0.416 0.464,-0.525 0.313,-0.525C0.15,-0.525 0.071,-0.406 0.071,-0.258C0.071,-0.108 0.158,0.009 0.315,0.009ZM0.19,-0.307C0.193,-0.374 0.23,-0.428 0.313,-0.428C0.391,-0.428 0.428,-0.375 0.43,-0.307L0.19,-0.307Z" style="fill:rgb(231,121,184);fill-rule:nonzero;"/>
            </g>
            <g transform="matrix(34.6667,0,0,34.6667,457.882,359.043)">
                <path d="M0.068,-0L0.549,-0L0.549,-0.096L0.325,-0.096L0.325,-0.252C0.325,-0.358 0.37,-0.417 0.457,-0.417L0.551,-0.417L0.551,-0.523L0.46,-0.523C0.395,-0.523 0.347,-0.487 0.325,-0.434L0.321,-0.434L0.312,-0.516L0.086,-0.516L0.086,-0.42L0.211,-0.42L0.211,-0.096L0.068,-0.096L0.068,-0Z" style="fill:rgb(231,121,184);fill-rule:nonzero;"/>
            </g>
            <g transform="matrix(34.6667,0,0,34.6667,479.341,359.043)">
                <path d="M0.268,0.009C0.337,0.009 0.389,-0.017 0.419,-0.061L0.423,-0.061L0.431,-0L0.531,-0L0.531,-0.344C0.531,-0.446 0.455,-0.525 0.319,-0.525C0.189,-0.525 0.111,-0.452 0.111,-0.354L0.219,-0.354C0.22,-0.396 0.253,-0.431 0.316,-0.431C0.388,-0.431 0.418,-0.391 0.418,-0.343L0.418,-0.295C0.391,-0.303 0.346,-0.312 0.298,-0.312C0.151,-0.312 0.088,-0.242 0.088,-0.152C0.088,-0.061 0.154,0.009 0.268,0.009ZM0.293,-0.082C0.231,-0.082 0.201,-0.114 0.201,-0.156C0.201,-0.202 0.237,-0.23 0.306,-0.23C0.344,-0.23 0.38,-0.225 0.418,-0.212L0.418,-0.195C0.418,-0.134 0.37,-0.082 0.293,-0.082Z" style="fill:rgb(231,121,184);fill-rule:nonzero;"/>
            </g>
            <g transform="matrix(34.6667,0,0,34.6667,500.799,359.043)">
                <path d="M0.321,0.009C0.462,0.009 0.535,-0.073 0.543,-0.187L0.429,-0.187C0.423,-0.128 0.383,-0.091 0.319,-0.091C0.231,-0.091 0.191,-0.156 0.191,-0.258C0.191,-0.358 0.231,-0.424 0.319,-0.424C0.382,-0.424 0.423,-0.386 0.428,-0.328L0.542,-0.328C0.535,-0.439 0.463,-0.525 0.319,-0.525C0.16,-0.525 0.076,-0.417 0.076,-0.258C0.076,-0.098 0.162,0.009 0.321,0.009Z" style="fill:rgb(231,121,184);fill-rule:nonzero;"/>
            </g>
            <g transform="matrix(34.6667,0,0,34.6667,522.258,359.043)">
                <path d="M0.405,0.009C0.454,0.009 0.502,-0 0.536,-0.009L0.536,-0.105L0.527,-0.105C0.5,-0.096 0.469,-0.09 0.433,-0.09C0.366,-0.09 0.332,-0.115 0.332,-0.164L0.332,-0.419L0.541,-0.419L0.541,-0.516L0.332,-0.516L0.332,-0.653L0.322,-0.653L0.222,-0.625L0.222,-0.516L0.063,-0.516L0.063,-0.419L0.218,-0.419L0.218,-0.148C0.218,-0.053 0.285,0.009 0.405,0.009Z" style="fill:rgb(231,121,184);fill-rule:nonzero;"/>
            </g>
        </g>
        <g transform="matrix(-0.41694,0.934224,-0.908934,-0.428541,21.4767,-0.858228)">
            <path d="M-11.271,-26.573L37.295,-26.573L41.425,-17.57L-7.141,-17.57L-11.271,-26.573Z" style="fill:white;fill-rule:nonzero;"/>
        </g>
        <g transform="matrix(-0.41694,0.934224,-0.908934,-0.428541,41.2681,-0.858228)">
            <path d="M-11.271,-26.573L37.295,-26.573L41.425,-17.57L-7.141,-17.57L-11.271,-26.573Z" style="fill:white;fill-rule:nonzero;"/>
        </g>
        <g transform="matrix(1,0,0,1.02782,49.9454,90.0587)">
            <path d="M0,-43.478L10.319,-21.739L0,0L10.112,0L20.613,-21.739L9.863,-43.478L0,-43.478Z" style="fill:white;fill-rule:nonzero;"/>
        </g>
        <g transform="matrix(1,0,0,1.02782,280.863,81.42)">
            <path d="M0,0L0.348,0L0,0Z" style="fill:white;fill-rule:nonzero;"/>
        </g>
        <g transform="matrix(1,0,0,1.02782,280.863,81.42)">
            <path d="M0,0L0.348,0L0,0Z" style="fill:white;fill-rule:nonzero;"/>
        </g>
        <g transform="matrix(1,0,0,1.02782,-222.52,-275.163)">
            <rect x="489.254" y="312.835" width="0.514" height="9.465" style="fill:white;"/>
        </g>
        <g transform="matrix(1,0,0,1.02782,-222.52,-275.163)">
            <rect x="489.254" y="312.835" width="0.514" height="9.465" style="fill:white;"/>
        </g>
        <g transform="matrix(1,0,0,1.02782,241.791,81.4193)">
            <rect x="0" y="0" width="0.001" height="0.001" style="fill:white;"/>
        </g>
        <g transform="matrix(1,0,0,1.02782,241.791,81.4193)">
            <rect x="0" y="0" width="0.001" height="0.001" style="fill:white;"/>
        </g>
        <g transform="matrix(1,0,0,1.02782,241.791,68.3791)">
            <path d="M0,-0.304L-0.02,-0.304C-0.019,-0.199 0,-0.105 0,0L0,-0.304Z" style="fill:white;fill-rule:nonzero;"/>
        </g>
        <g transform="matrix(1,0,0,1.02782,239.142,81.42)">
            <path d="M0,0L1.337,0L0,0Z" style="fill:white;fill-rule:nonzero;"/>
        </g>
        <g transform="matrix(1,0,0,1.02782,239.142,81.42)">
            <path d="M0,0L1.337,0L0,0Z" style="fill:white;fill-rule:nonzero;"/>
        </g>
        <g transform="matrix(1,0,0,1.02782,240.478,81.42)">
            <path d="M0,0L1.313,0L0,0Z" style="fill:white;fill-rule:nonzero;"/>
        </g>
        <g transform="matrix(1,0,0,1.02782,240.478,81.42)">
            <path d="M0,0L1.313,0L0,0Z" style="fill:white;fill-rule:nonzero;"/>
        </g>
        <g transform="matrix(1,0,0,1.02782,240.478,81.42)">
            <path d="M0,0L1.313,0L0,0Z" style="fill:white;fill-rule:nonzero;"/>
        </g>
        <g transform="matrix(1,0,0,1.02782,230.722,81.4193)">
            <rect x="0" y="0" width="0.001" height="0.001" style="fill:white;"/>
        </g>
        <g transform="matrix(1,0,0,1.02782,230.722,81.4193)">
            <rect x="0" y="0" width="0.001" height="0.001" style="fill:white;"/>
        </g>
        <g transform="matrix(1,0,0,1.02782,230.721,81.42)">
            <path d="M0,0L8.42,0L0,0Z" style="fill:white;fill-rule:nonzero;"/>
        </g>
        <g transform="matrix(1,0,0,1.02782,230.721,81.42)">
            <path d="M0,0L8.42,0L0,0Z" style="fill:white;fill-rule:nonzero;"/>
        </g>
        <g transform="matrix(1,0,0,1.02782,230.721,81.42)">
            <path d="M0,0L8.42,0L0,0Z" style="fill:white;fill-rule:nonzero;"/>
        </g>
        <g transform="matrix(1,0,0,1.02782,241.791,90.166)">
            <path d="M0,0.956L0,0L0,0.956Z" style="fill:white;fill-rule:nonzero;"/>
        </g>
        <g transform="matrix(1,0,0,1.02782,241.791,90.166)">
            <path d="M0,0.956L0,0L0,0.956Z" style="fill:white;fill-rule:nonzero;"/>
        </g>
        <g transform="matrix(1,0,0,1.02782,241.791,81.4195)">
            <path d="M0,8.51L0,0L0,8.51Z" style="fill:white;fill-rule:nonzero;"/>
        </g>
        <g transform="matrix(1,0,0,1.02782,241.791,81.4195)">
            <path d="M0,8.51L0,0L0,8.51Z" style="fill:white;fill-rule:nonzero;"/>
        </g>
        <g transform="matrix(1,0,0,1.02782,241.791,81.4195)">
            <path d="M0,8.51L0,0L0,8.51Z" style="fill:white;fill-rule:nonzero;"/>
        </g>
        <g transform="matrix(1,0,0,1.02782,230.722,81.4189)">
            <rect x="0" y="0" width="0.001" height="0.001" style="fill:white;"/>
        </g>
        <g transform="matrix(1,0,0,1.02782,230.722,81.4189)">
            <rect x="0" y="0" width="0.001" height="0.001" style="fill:white;"/>
        </g>
        <g transform="matrix(1,0,0,1.02782,230.722,81.4189)">
            <rect x="0" y="0" width="0.001" height="0.001" style="fill:white;"/>
        </g>
        <g transform="matrix(1,0,0,1.02782,230.027,82.564)">
            <path d="M0,-1.113L0,0L0.694,-1.113L0,-1.113Z" style="fill:white;fill-rule:nonzero;"/>
        </g>
        <g transform="matrix(1,0,0,1.02782,241.772,50.7776)">
            <path d="M0,16.821C-0.105,4.177 -6.517,-5.101 -17.661,-5.101C-22.141,-5.101 -25.235,-3.72 -27.42,-1.88L-27.42,-22.457L-37.943,-22.457L-37.943,39.278L-11.051,39.278L-11.051,38.002L-11.05,38.002L-11.05,29.813L-11.051,29.813L-11.05,29.813L-27.42,29.813L-27.42,7.562C-25.915,5.781 -23.766,4.649 -20.718,4.649C-13.613,4.649 -11.05,10.336 -11.05,17.111L-11.05,29.813L0.02,29.813L0.02,17.125C0.02,17.02 0.001,16.926 0,16.821" style="fill:white;fill-rule:nonzero;"/>
        </g>
        <g transform="matrix(1,0,0,1.02782,196.007,68.0662)">
            <path d="M0,0.304L0,0L-0.02,0C-0.019,0.105 0,0.199 0,0.304" style="fill:white;fill-rule:nonzero;"/>
        </g>
        <g transform="matrix(1,0,0,1.02782,305.896,68.8568)">
            <path d="M0,-12.413L0,-21.871L-14.087,-21.871L-14.087,-34.101L-25.033,-34.101L-25.033,-21.871L-38.648,-21.871L-38.648,-12.406L-25.033,-12.406L-25.033,12.223L-13.963,12.223L-13.963,21.688L0,21.688L0,12.223L-13.963,12.223L-13.963,-12.413L0,-12.413Z" style="fill:white;fill-rule:nonzero;"/>
        </g>
        <g transform="matrix(1,0,0,1.02782,267.248,56.1056)">
            <path d="M0,24.629L0,0L-0.514,0L-0.514,-9.465L-25.199,-9.465L-25.199,0L-11.07,0L-11.07,24.629L-25.456,24.629L-25.456,34.094L13.615,34.094L13.615,24.629L0,24.629Z" style="fill:white;fill-rule:nonzero;"/>
        </g>
        <g transform="matrix(-1,0,0,1.02782,745.946,-310.032)">
            <rect x="478.698" y="328.995" width="11.07" height="11.07" style="fill:white;"/>
        </g>
        <g transform="matrix(1,0,0,1.02782,84.9531,89.3346)">
            <path d="M0,-41.659L9.194,-41.659L10.008,-35.231L10.333,-35.231C12.204,-39.217 15.947,-42.31 21.317,-42.31L24.409,-42.31L24.409,-32.222L20.584,-32.222C14.076,-32.222 10.333,-27.745 10.333,-20.099L10.333,0.651L0,0.651L0,-41.659Z" style="fill:white;fill-rule:nonzero;"/>
        </g>
        <g transform="matrix(1,0,0,1.02782,111.076,59.3126)">
            <path d="M0,17.41C0,9.764 5.289,4.31 17.169,4.31C20.666,4.31 24.572,4.96 26.606,5.614L26.606,1.951C26.606,-1.464 24.409,-4.234 19.201,-4.234C14.645,-4.234 12.123,-1.791 12.123,1.221L1.871,1.221C1.871,-6.755 7.891,-13.184 19.445,-13.184C30.837,-13.184 37.427,-6.755 37.427,1.871L37.427,29.86L27.745,29.86L27.013,25.467L26.687,25.467C24.247,28.559 20.259,30.594 14.808,30.594C5.369,30.594 0,24.896 0,17.41M26.606,14.158L26.606,13.26C23.759,12.203 20.991,11.88 18.144,11.88C13.344,11.88 10.822,13.911 10.822,16.923C10.822,19.852 13.019,21.967 17.412,21.967C23.108,21.967 26.606,18.388 26.606,14.158" style="fill:white;fill-rule:nonzero;"/>
        </g>
        <g transform="matrix(1,0,0,1.02782,168.202,33.5555)">
            <path d="M0,50.363L-0.325,50.363L-1.464,54.92L-11.229,54.92L-11.229,-5.291L-0.325,-5.291L-0.325,17.167L0,17.167C2.117,14.398 5.614,11.876 11.636,11.876C22.701,11.876 29.048,21.153 29.048,33.763C29.048,46.704 22.457,55.654 11.636,55.654C5.614,55.654 2.117,53.128 0,50.363M17.982,33.763C17.982,27.091 15.622,21.477 8.625,21.477C1.71,21.477 -0.732,27.175 -0.732,33.763C-0.732,40.355 1.79,46.049 8.625,46.049C15.46,46.049 17.982,40.355 17.982,33.763" style="fill:white;fill-rule:nonzero;"/>
        </g>
        <g transform="matrix(0,1.02782,1,0,42.9932,51.6535)">
            <path d="M5.663,-5.663C2.536,-5.663 0.001,-3.128 0.001,0C0.001,3.126 2.536,5.663 5.663,5.663C8.79,5.663 11.325,3.126 11.325,0C11.325,-3.128 8.79,-5.663 5.663,-5.663" style="fill:rgb(231,121,184);fill-rule:nonzero;"/>
        </g>
    </g>
</svg>
